                                                                        S      1
,,4HBase,4HBase,7Hunknown,7Hunknown,32,38,7,99,15,,1.,2,2HMM,1,0.08,15H2G      1
0181220.153337,0.01,10000.,5H15mre,7Hunknown,11,0,15H20181111.005321;   G      2
     186       1                                                00000000D      1
     186            -283       1       0                               0D      2
     514       2                                                00010000D      3
     514                       2       1                               0D      4
     510       4                                                00010000D      5
     510            -283       1       1                               0D      6
     510       5                                                00010000D      7
     510            -283       1       1                               0D      8
     510       6                                                00010000D      9
     510            -283       1       1                               0D     10
     510       7                                                00010000D     11
     510            -283       1       1                               0D     12
     510       8                                                00010000D     13
     510            -283       1       1                               0D     14
     510       9                                                00010000D     15
     510            -283       1       1                               0D     16
     510      10                                                00010000D     17
     510            -283       1       1                               0D     18
     510      11                                                00010000D     19
     510            -283       1       1                               0D     20
     510      12                                                00010000D     21
     510            -283       1       1                               0D     22
     510      13                                                00010000D     23
     510            -283       1       1                               0D     24
     510      14                                                00010000D     25
     510            -283       1       1                               0D     26
     510      15                                                00010000D     27
     510            -283       1       1                               0D     28
     510      16                                                00010000D     29
     510            -283       1       1                               0D     30
     510      17                                                00010000D     31
     510            -283       1       1                               0D     32
     510      18                                                00010000D     33
     510            -283       1       1                               0D     34
     510      19                                                00010000D     35
     510            -283       1       1                               0D     36
     510      20                                                00010000D     37
     510            -283       1       1                               0D     38
     510      21                                                00010000D     39
     510            -283       1       1                               0D     40
     510      22                                                00010000D     41
     510            -283       1       1                               0D     42
     510      23                                                00010000D     43
     510            -283       1       1                               0D     44
     510      24                                                00010000D     45
     510            -283       1       1                               0D     46
     510      25                                                00010000D     47
     510            -283       1       1                               0D     48
     508      26                                                00010000D     49
     508                       1       1                               0D     50
     508      27                                                00010000D     51
     508                       1       1                               0D     52
     508      28                                                00010000D     53
     508                       1       1                               0D     54
     508      29                                                00010000D     55
     508                       1       1                               0D     56
     508      30                                                00010000D     57
     508                       1       1                               0D     58
     508      31                                                00010000D     59
     508                       1       1                               0D     60
     508      32                                                00010000D     61
     508                       1       1                               0D     62
     508      33                                                00010000D     63
     508                       1       1                               0D     64
     508      34                                                00010000D     65
     508                       1       1                               0D     66
     508      35                                                00010000D     67
     508                       1       1                               0D     68
     508      36                                                00010000D     69
     508                       2       1                               0D     70
     508      38                                                00010000D     71
     508                       2       1                               0D     72
     508      40                                                00010000D     73
     508                       1       1                               0D     74
     508      41                                                00010000D     75
     508                       1       1                               0D     76
     508      42                                                00010000D     77
     508                       1       1                               0D     78
     508      43                                                00010000D     79
     508                       1       1                               0D     80
     508      44                                                00010000D     81
     508                       1       1                               0D     82
     508      45                                                00010000D     83
     508                       1       1                               0D     84
     508      46                                                00010000D     85
     508                       1       1                               0D     86
     508      47                                                00010000D     87
     508                       1       1                               0D     88
     508      48                                                00010000D     89
     508                       1       1                               0D     90
     508      49                                                00010000D     91
     508                       1       1                               0D     92
     508      50                                                00010000D     93
     508                       1       1                               0D     94
     508      51                                                00010000D     95
     508                       1       1                               0D     96
     508      52                                                00010000D     97
     508                       1       1                               0D     98
     508      53                                                00010000D     99
     508                       1       1                               0D    100
     508      54                                                00010000D    101
     508                       2       1                               0D    102
     508      56                                                00010000D    103
     508                       2       1                               0D    104
     508      58                                                00010000D    105
     508                       1       1                               0D    106
     508      59                                                00010000D    107
     508                       1       1                               0D    108
     508      60                                                00010000D    109
     508                       1       1                               0D    110
     508      61                                                00010000D    111
     508                       1       1                               0D    112
     126      62                                                00010000D    113
     126       0               4       0                               0D    114
     126      66                                                00010000D    115
     126       0               2       0                               0D    116
     126      68                                                00010000D    117
     126       0               4       0                               0D    118
     126      72                                                00010000D    119
     126       0               2       0                               0D    120
     126      74                                                00010000D    121
     126       0               2       0                               0D    122
     126      76                                                00010000D    123
     126       0               2       0                               0D    124
     126      78                                                00010000D    125
     126       0               2       0                               0D    126
     126      80                                                00010000D    127
     126       0               4       0                               0D    128
     126      84                                                00010000D    129
     126       0               2       0                               0D    130
     126      86                                                00010000D    131
     126       0               5       0                               0D    132
     126      91                                                00010000D    133
     126       0               2       0                               0D    134
     126      93                                                00010000D    135
     126       0               2       0                               0D    136
     126      95                                                00010000D    137
     126       0               2       0                               0D    138
     126      97                                                00010000D    139
     126       0               5       0                               0D    140
     126     102                                                00010000D    141
     126       0               2       0                               0D    142
     126     104                                                00010000D    143
     126       0               5       0                               0D    144
     126     109                                                00010000D    145
     126       0               2       0                               0D    146
     126     111                                                00010000D    147
     126       0               2       0                               0D    148
     126     113                                                00010000D    149
     126       0               2       0                               0D    150
     126     115                                                00010000D    151
     126       0               4       0                               0D    152
     126     119                                                00010000D    153
     126       0               2       0                               0D    154
     126     121                                                00010000D    155
     126       0               5       0                               0D    156
     126     126                                                00010000D    157
     126       0               2       0                               0D    158
     126     128                                                00010000D    159
     126       0               2       0                               0D    160
     126     130                                                00010000D    161
     126       0               5       0                               0D    162
     126     135                                                00010000D    163
     126       0               2       0                               0D    164
     126     137                                                00010000D    165
     126       0               5       0                               0D    166
     126     142                                                00010000D    167
     126       0               2       0                               0D    168
     126     144                                                00010000D    169
     126       0               2       0                               0D    170
     126     146                                                00010000D    171
     126       0               2       0                               0D    172
     126     148                                                00010000D    173
     126       0               2       0                               0D    174
     126     150                                                00010000D    175
     126       0               2       0                               0D    176
     126     152                                                00010000D    177
     126       0               5       0                               0D    178
     126     157                                                00010000D    179
     126       0               2       0                               0D    180
     126     159                                                00010000D    181
     126       0               5       0                               0D    182
     126     164                                                00010000D    183
     126       0               2       0                               0D    184
     126     166                                                00010000D    185
     126       0               4       0                               0D    186
     126     170                                                00010000D    187
     126       0               8       0                               0D    188
     126     178                                                00010000D    189
     126       0               9       0                               0D    190
     126     187                                                00010000D    191
     126       0               9       0                               0D    192
     126     196                                                00010000D    193
     126       0               9       0                               0D    194
     126     205                                                00010000D    195
     126       0               2       0                               0D    196
     126     207                                                00010000D    197
     126       0               4       0                               0D    198
     126     211                                                00010000D    199
     126       0               2       0                               0D    200
     126     213                                                00010000D    201
     126       0               2       0                               0D    202
     126     215                                                00010000D    203
     126       0               2       0                               0D    204
     126     217                                                00010000D    205
     126       0               5       0                               0D    206
     126     222                                                00010000D    207
     126       0               2       0                               0D    208
     126     224                                                00010000D    209
     126       0               2       0                               0D    210
     126     226                                                00010000D    211
     126       0               2       0                               0D    212
     126     228                                                00010000D    213
     126       0               5       0                               0D    214
     126     233                                                00010000D    215
     126       0               2       0                               0D    216
     126     235                                                00010000D    217
     126       0               8       0                               0D    218
     126     243                                                00010000D    219
     126       0               2       0                               0D    220
     126     245                                                00010000D    221
     126       0               8       0                               0D    222
     126     253                                                00010000D    223
     126       0               2       0                               0D    224
     126     255                                                00010000D    225
     126       0               9       0                               0D    226
     126     264                                                00010000D    227
     126       0               2       0                               0D    228
     126     266                                                00010000D    229
     126       0               8       0                               0D    230
     126     274                                                00010000D    231
     126       0               2       0                               0D    232
     128     276                                                00010000D    233
     128       0    -283       6       0                               0D    234
     128     282                                                00010000D    235
     128       0    -283       3       0                               0D    236
     128     285                                                00010000D    237
     128       0    -283       6       0                               0D    238
     128     291                                                00010000D    239
     128       0    -283       3       0                               0D    240
     128     294                                                00010000D    241
     128       0    -283       6       0                               0D    242
     128     300                                                00010000D    243
     128       0    -283       3       0                               0D    244
     128     303                                                00010000D    245
     128       0    -283       6       0                               0D    246
     128     309                                                00010000D    247
     128       0    -283       3       0                               0D    248
     128     312                                                00010000D    249
     128       0    -283       6       0                               0D    250
     128     318                                                00010000D    251
     128       0    -283       3       0                               0D    252
     128     321                                                00010000D    253
     128       0    -283       3       0                               0D    254
     128     324                                                00010000D    255
     128       0    -283       6       0                               0D    256
     128     330                                                00010000D    257
     128       0    -283       3       0                               0D    258
     128     333                                                00010000D    259
     128       0    -283       6       0                               0D    260
     128     339                                                00010000D    261
     128       0    -283       3       0                               0D    262
     128     342                                                00010000D    263
     128       0    -283       6       0                               0D    264
     128     348                                                00010000D    265
     128       0    -283      13       0                               0D    266
     128     361                                                00010000D    267
     128       0    -283      13       0                               0D    268
     128     374                                                00010000D    269
     128       0    -283      13       0                               0D    270
     128     387                                                00010000D    271
     128       0    -283      13       0                               0D    272
     128     400                                                00010000D    273
     128       0    -283       3       0                               0D    274
     128     403                                                00010000D    275
     128       0    -283       3       0                               0D    276
     502     406                                                00010000D    277
     502                       9       1                               0D    278
     504     415                                                00010001D    279
     504                      17       1                               0D    280
     406     432                                                00000000D    281
     406                       1      15                               0D    282
     314     433                                                00000200D    283
     314                       2       0                               0D    284
186,3,1,0,0,1,281;                                                     1P      1
514,22,5,1,7,1,9,1,11,1,13,1,15,1,17,1,19,1,21,1,23,1,25,1,27,1,       3P      2
29,1,31,1,33,1,35,1,37,1,39,1,41,1,43,1,45,1,47,1;                     3P      3
510,233,1,1,49;                                                        5P      4
510,235,1,1,51;                                                        7P      5
510,237,1,1,53;                                                        9P      6
510,239,1,1,55;                                                       11P      7
510,241,1,1,57;                                                       13P      8
510,243,1,1,59;                                                       15P      9
510,245,1,1,61;                                                       17P     10
510,247,1,1,63;                                                       19P     11
510,249,1,1,65;                                                       21P     12
510,251,1,1,67;                                                       23P     13
510,253,6,1,69,71,73,75,77,79;                                        25P     14
510,255,1,1,81;                                                       27P     15
510,257,1,1,83;                                                       29P     16
510,259,1,1,85;                                                       31P     17
510,261,1,1,87;                                                       33P     18
510,263,1,1,89;                                                       35P     19
510,265,1,1,91;                                                       37P     20
510,267,1,1,93;                                                       39P     21
510,269,1,1,95;                                                       41P     22
510,271,1,1,97;                                                       43P     23
510,273,1,1,99;                                                       45P     24
510,275,6,1,101,103,105,107,109,111;                                  47P     25
508,4,0,279,1,1,0,0,279,2,1,0,0,279,3,1,0,0,279,4,1,0;                49P     26
508,4,0,279,2,0,0,0,279,5,1,0,0,279,6,0,0,0,279,7,0,0;                51P     27
508,4,0,279,8,1,0,0,279,9,1,0,0,279,10,1,0,0,279,6,1,0;               53P     28
508,4,0,279,9,0,0,0,279,11,1,0,0,279,12,0,0,0,279,13,0,0;             55P     29
508,4,0,279,14,1,0,0,279,15,1,0,0,279,16,1,0,0,279,12,1,0;            57P     30
508,4,0,279,15,0,0,0,279,17,1,0,0,279,18,0,0,0,279,19,0,0;            59P     31
508,4,0,279,20,1,0,0,279,21,1,0,0,279,22,1,0,0,279,18,1,0;            61P     32
508,4,0,279,4,0,0,0,279,23,0,0,0,279,21,0,0,0,279,24,1,0;             63P     33
508,4,0,279,25,1,0,0,279,26,1,0,0,279,27,1,0,0,279,28,1,0;            65P     34
508,4,0,279,26,0,0,0,279,29,0,0,0,279,30,0,0,0,279,31,0,0;            67P     35
508,8,0,279,25,0,0,0,279,32,1,0,0,279,33,0,0,0,279,34,1,0,0,279,      69P     36
35,0,0,0,279,36,1,0,0,279,37,0,0,0,279,29,1,0;                        69P     37
508,8,0,279,13,1,0,0,279,16,0,0,0,279,19,1,0,0,279,22,0,0,0,279,      71P     38
23,1,0,0,279,3,0,0,0,279,7,1,0,0,279,10,0,0;                          71P     39
508,1,0,279,38,1,0;                                                   73P     40
508,1,0,279,39,1,0;                                                   75P     41
508,1,0,279,40,1,0;                                                   77P     42
508,1,0,279,41,1,0;                                                   79P     43
508,4,0,279,37,1,0,0,279,42,1,0,0,279,43,1,0,0,279,30,1,0;            81P     44
508,4,0,279,42,0,0,0,279,36,0,0,0,279,44,0,0,0,279,45,0,0;            83P     45
508,4,0,279,35,1,0,0,279,46,1,0,0,279,47,1,0,0,279,44,1,0;            85P     46
508,4,0,279,46,0,0,0,279,34,0,0,0,279,48,0,0,0,279,49,0,0;            87P     47
508,4,0,279,33,1,0,0,279,50,1,0,0,279,51,1,0,0,279,48,1,0;            89P     48
508,4,0,279,41,0,0,0,279,52,1,0,0,279,53,1,0,0,279,52,0,0;            91P     49
508,4,0,279,40,0,0,0,279,54,1,0,0,279,55,1,0,0,279,54,0,0;            93P     50
508,4,0,279,39,0,0,0,279,56,1,0,0,279,57,1,0,0,279,56,0,0;            95P     51
508,4,0,279,38,0,0,0,279,58,1,0,0,279,59,1,0,0,279,58,0,0;            97P     52
508,4,0,279,28,0,0,0,279,60,0,0,0,279,50,0,0,0,279,32,0,0;            99P     53
508,8,0,279,27,0,0,0,279,31,1,0,0,279,43,0,0,0,279,45,1,0,0,279,     101P     54
47,0,0,0,279,49,1,0,0,279,51,0,0,0,279,60,1,0;                       101P     55
508,8,0,279,8,0,0,0,279,5,0,0,0,279,1,0,0,0,279,24,0,0,0,279,20,     103P     56
0,0,0,279,17,0,0,0,279,14,0,0,0,279,11,0,0;                          103P     57
508,1,0,279,59,0,0;                                                  105P     58
508,1,0,279,57,0,0;                                                  107P     59
508,1,0,279,55,0,0;                                                  109P     60
508,1,0,279,53,0,0;                                                  111P     61
126,2,2,0,0,0,0,-0.785398163397448,-0.785398163397448,               113P     62
-0.785398163397448,0.785398163397448,0.785398163397448,              113P     63
0.785398163397448,1.,0.70710678118655,1.,62.5,48.,0.,72.5,48.,       113P     64
0.,72.5,38.,0.,-0.785398163397448,0.785398163397448,0.,0.,0.;        113P     65
126,1,1,0,0,1,0,0.,0.,0.75,0.75,1.,1.,72.5,38.,0.,72.5,38.,7.5,      115P     66
0.,0.75,0.,0.,0.;                                                    115P     67
126,2,2,0,0,0,0,-0.785398163397448,-0.785398163397448,               117P     68
-0.785398163397448,0.785398163397448,0.785398163397448,              117P     69
0.785398163397448,1.,0.70710678118655,1.,72.5,38.,7.5,72.5,48.,      117P     70
7.5,62.5,48.,7.5,-0.785398163397448,0.785398163397448,0.,0.,0.;      117P     71
126,1,1,0,0,1,0,-0.75,-0.75,0.,0.,1.,1.,62.5,48.,7.5,62.5,48.,       119P     72
0.,-0.75,0.,0.,0.,0.;                                                119P     73
126,1,1,0,0,1,0,1.,1.,8.6,8.6,1.,1.,72.5,38.,0.,72.5,-38.,0.,1.,     121P     74
8.6,0.,0.,0.;                                                        121P     75
126,1,1,0,0,1,0,-0.75,-0.75,0.,0.,1.,1.,72.5,-38.,7.5,72.5,-38.,     123P     76
0.,-0.75,0.,0.,0.,0.;                                                123P     77
126,1,1,0,0,1,0,1.,1.,8.6,8.6,1.,1.,72.5,38.,7.5,72.5,-38.,7.5,      125P     78
1.,8.6,0.,0.,0.;                                                     125P     79
126,2,2,0,0,0,0,-0.785398163397448,-0.785398163397448,               127P     80
-0.785398163397448,0.785398163397448,0.785398163397448,              127P     81
0.785398163397448,1.,0.70710678118655,1.,72.5,-38.,0.,72.5,-48.,     127P     82
0.,62.5,-48.,0.,-0.785398163397448,0.785398163397448,0.,0.,0.;       127P     83
126,1,1,0,0,1,0,0.,0.,0.75,0.75,1.,1.,62.5,-48.,0.,62.5,-48.,        129P     84
7.5,0.,0.75,0.,0.,0.;                                                129P     85
126,2,2,0,0,0,0,-0.785398163397448,-0.785398163397448,               131P     86
-0.785398163397448,0.785398163397448,0.785398163397448,              131P     87
0.785398163397448,1.,0.70710678118655,1.,62.5,-48.,7.5,72.5,         131P     88
-48.,7.5,72.5,-38.,7.5,-0.785398163397448,0.785398163397448,0.,      131P     89
0.,0.;                                                               131P     90
126,1,1,0,0,1,0,1.,1.,13.5,13.5,1.,1.,62.5,-48.,0.,-62.5,-48.,       133P     91
0.,1.,13.5,0.,0.,0.;                                                 133P     92
126,1,1,0,0,1,0,-0.75,-0.75,0.,0.,1.,1.,-62.5,-48.,7.5,-62.5,        135P     93
-48.,0.,-0.75,0.,0.,0.,0.;                                           135P     94
126,1,1,0,0,1,0,1.,1.,13.5,13.5,1.,1.,62.5,-48.,7.5,-62.5,-48.,      137P     95
7.5,1.,13.5,0.,0.,0.;                                                137P     96
126,2,2,0,0,0,0,-0.785398163397448,-0.785398163397448,               139P     97
-0.785398163397448,0.785398163397448,0.785398163397448,              139P     98
0.785398163397448,1.,0.70710678118655,1.,-62.5,-48.,0.,-72.5,        139P     99
-48.,0.,-72.5,-38.,0.,-0.785398163397448,0.785398163397448,0.,       139P    100
0.,0.;                                                               139P    101
126,1,1,0,0,1,0,0.,0.,0.75,0.75,1.,1.,-72.5,-38.,0.,-72.5,-38.,      141P    102
7.5,0.,0.75,0.,0.,0.;                                                141P    103
126,2,2,0,0,0,0,-0.785398163397448,-0.785398163397448,               143P    104
-0.785398163397448,0.785398163397448,0.785398163397448,              143P    105
0.785398163397448,1.,0.70710678118655,1.,-72.5,-38.,7.5,-72.5,       143P    106
-48.,7.5,-62.5,-48.,7.5,-0.785398163397448,0.785398163397448,0.,     143P    107
0.,0.;                                                               143P    108
126,1,1,0,0,1,0,1.,1.,8.6,8.6,1.,1.,-72.5,-38.,0.,-72.5,38.,0.,      145P    109
1.,8.6,0.,0.,0.;                                                     145P    110
126,1,1,0,0,1,0,-0.75,-0.75,0.,0.,1.,1.,-72.5,38.,7.5,-72.5,38.,     147P    111
0.,-0.75,0.,0.,0.,0.;                                                147P    112
126,1,1,0,0,1,0,1.,1.,8.6,8.6,1.,1.,-72.5,-38.,7.5,-72.5,38.,        149P    113
7.5,1.,8.6,0.,0.,0.;                                                 149P    114
126,2,2,0,0,0,0,-0.785398163397448,-0.785398163397448,               151P    115
-0.785398163397448,0.785398163397448,0.785398163397448,              151P    116
0.785398163397448,1.,0.70710678118655,1.,-72.5,38.,0.,-72.5,48.,     151P    117
0.,-62.5,48.,0.,-0.785398163397448,0.785398163397448,0.,0.,0.;       151P    118
126,1,1,0,0,1,0,0.,0.,0.75,0.75,1.,1.,-62.5,48.,0.,-62.5,48.,        153P    119
7.5,0.,0.75,0.,0.,0.;                                                153P    120
126,2,2,0,0,0,0,-0.785398163397448,-0.785398163397448,               155P    121
-0.785398163397448,0.785398163397448,0.785398163397448,              155P    122
0.785398163397448,1.,0.70710678118655,1.,-62.5,48.,7.5,-72.5,        155P    123
48.,7.5,-72.5,38.,7.5,-0.785398163397448,0.785398163397448,0.,       155P    124
0.,0.;                                                               155P    125
126,1,1,0,0,1,0,1.,1.,13.5,13.5,1.,1.,-62.5,48.,7.5,62.5,48.,        157P    126
7.5,1.,13.5,0.,0.,0.;                                                157P    127
126,1,1,0,0,1,0,1.,1.,13.5,13.5,1.,1.,-62.5,48.,0.,62.5,48.,0.,      159P    128
1.,13.5,0.,0.,0.;                                                    159P    129
126,2,2,0,0,0,0,-0.785398163397448,-0.785398163397448,               161P    130
-0.785398163397448,0.785398163397448,0.785398163397448,              161P    131
0.785398163397448,1.,0.707106781186545,1.,-82.5,53.,7.5,-82.5,       161P    132
58.,7.5,-77.5,58.,7.5,-0.785398163397448,0.785398163397448,0.,       161P    133
0.,0.;                                                               161P    134
126,1,1,0,0,1,0,-0.75,-0.75,0.,0.,1.,1.,-77.5,58.,7.5,-77.5,58.,     163P    135
0.,-0.75,0.,0.,0.,0.;                                                163P    136
126,2,2,0,0,0,0,-0.785398163397448,-0.785398163397448,               165P    137
-0.785398163397448,0.785398163397448,0.785398163397448,              165P    138
0.785398163397448,1.,0.707106781186545,1.,-77.5,58.,0.,-82.5,        165P    139
58.,0.,-82.5,53.,0.,-0.785398163397448,0.785398163397448,0.,0.,      165P    140
0.;                                                                  165P    141
126,1,1,0,0,1,0,0.,0.,0.75,0.75,1.,1.,-82.5,53.,0.,-82.5,53.,        167P    142
7.5,0.,0.75,0.,0.,0.;                                                167P    143
126,1,1,0,0,1,0,-16.,-16.,-0.5,-0.5,1.,1.,77.5,58.,7.5,-77.5,        169P    144
58.,7.5,-16.,-0.5,0.,0.,0.;                                          169P    145
126,1,1,0,0,1,0,0.,0.,0.75,0.75,1.,1.,77.5,58.,0.,77.5,58.,7.5,      171P    146
0.,0.75,0.,0.,0.;                                                    171P    147
126,1,1,0,0,1,0,0.5,0.5,16.,16.,1.,1.,-77.5,58.,0.,77.5,58.,0.,      173P    148
0.5,16.,0.,0.,0.;                                                    173P    149
126,1,1,0,0,1,0,-11.1,-11.1,-0.5,-0.5,1.,1.,-82.5,53.,7.5,-82.5,     175P    150
-53.,7.5,-11.1,-0.5,0.,0.,0.;                                        175P    151
126,2,2,0,0,0,0,-0.785398163397448,-0.785398163397448,               177P    152
-0.785398163397448,0.785398163397448,0.785398163397448,              177P    153
0.785398163397448,1.,0.707106781186545,1.,-77.5,-58.,7.5,-82.5,      177P    154
-58.,7.5,-82.5,-53.,7.5,-0.785398163397448,0.785398163397448,0.,     177P    155
0.,0.;                                                               177P    156
126,1,1,0,0,1,0,-16.,-16.,-0.5,-0.5,1.,1.,-77.5,-58.,7.5,77.5,       179P    157
-58.,7.5,-16.,-0.5,0.,0.,0.;                                         179P    158
126,2,2,0,0,0,0,-0.785398163397448,-0.785398163397448,               181P    159
-0.785398163397448,0.785398163397448,0.785398163397448,              181P    160
0.785398163397448,1.,0.707106781186545,1.,82.5,-53.,7.5,82.5,        181P    161
-58.,7.5,77.5,-58.,7.5,-0.785398163397448,0.785398163397448,0.,      181P    162
0.,0.;                                                               181P    163
126,1,1,0,0,1,0,-11.1,-11.1,-0.5,-0.5,1.,1.,82.5,-53.,7.5,82.5,      183P    164
53.,7.5,-11.1,-0.5,0.,0.,0.;                                         183P    165
126,2,2,0,0,0,0,-0.785398163397448,-0.785398163397448,               185P    166
-0.785398163397448,0.785398163397448,0.785398163397448,              185P    167
0.785398163397448,1.,0.707106781186545,1.,77.5,58.,7.5,82.5,58.,     185P    168
7.5,82.5,53.,7.5,-0.785398163397448,0.785398163397448,0.,0.,0.;      185P    169
126,8,2,0,1,0,0,-3.14159265358979,-3.14159265358979,                 187P    170
-3.14159265358979,-1.5707963267949,-1.5707963267949,0.,0.,           187P    171
1.5707963267949,1.5707963267949,3.14159265358979,                    187P    172
3.14159265358979,3.14159265358979,1.,0.707106781186546,1.,           187P    173
0.707106781186546,1.,0.707106781186546,1.,0.707106781186546,1.,      187P    174
73.45,50.5,7.5,73.45,52.05,7.5,75.,52.05,7.5,76.55,52.05,7.5,        187P    175
76.55,50.5,7.5,76.55,48.95,7.5,75.,48.95,7.5,73.45,48.95,7.5,        187P    176
73.45,50.5,7.5,-3.14159265358979,3.14159265358979,0.,0.,0.;          187P    177
126,8,2,0,1,0,0,-3.14159265358979,-3.14159265358979,                 189P    178
-3.14159265358979,-1.5707963267949,-1.5707963267949,0.,0.,           189P    179
1.5707963267949,1.5707963267949,3.14159265358979,                    189P    180
3.14159265358979,3.14159265358979,1.,0.707106781186546,1.,           189P    181
0.707106781186546,1.,0.707106781186546,1.,0.707106781186546,1.,      189P    182
-76.55,-50.5,7.5,-76.55,-48.95,7.5,-75.,-48.95,7.5,-73.45,           189P    183
-48.95,7.5,-73.45,-50.5,7.5,-73.45,-52.05,7.5,-75.,-52.05,7.5,       189P    184
-76.55,-52.05,7.5,-76.55,-50.5,7.5,-3.14159265358979,                189P    185
3.14159265358979,0.,0.,0.;                                           189P    186
126,8,2,0,1,0,0,-3.14159265358979,-3.14159265358979,                 191P    187
-3.14159265358979,-1.5707963267949,-1.5707963267949,0.,0.,           191P    188
1.5707963267949,1.5707963267949,3.14159265358979,                    191P    189
3.14159265358979,3.14159265358979,1.,0.707106781186546,1.,           191P    190
0.707106781186546,1.,0.707106781186546,1.,0.707106781186546,1.,      191P    191
-76.55,50.5,7.5,-76.55,52.05,7.5,-75.,52.05,7.5,-73.45,52.05,        191P    192
7.5,-73.45,50.5,7.5,-73.45,48.95,7.5,-75.,48.95,7.5,-76.55,          191P    193
48.95,7.5,-76.55,50.5,7.5,-3.14159265358979,3.14159265358979,0.,     191P    194
0.,0.;                                                               191P    195
126,8,2,0,1,0,0,-3.14159265358979,-3.14159265358979,                 193P    196
-3.14159265358979,-1.5707963267949,-1.5707963267949,0.,0.,           193P    197
1.5707963267949,1.5707963267949,3.14159265358979,                    193P    198
3.14159265358979,3.14159265358979,1.,0.707106781186546,1.,           193P    199
0.707106781186546,1.,0.707106781186546,1.,0.707106781186546,1.,      193P    200
73.45,-50.5,7.5,73.45,-48.95,7.5,75.,-48.95,7.5,76.55,-48.95,        193P    201
7.5,76.55,-50.5,7.5,76.55,-52.05,7.5,75.,-52.05,7.5,73.45,           193P    202
-52.05,7.5,73.45,-50.5,7.5,-3.14159265358979,3.14159265358979,       193P    203
0.,0.,0.;                                                            193P    204
126,1,1,0,0,1,0,-0.75,-0.75,0.,0.,1.,1.,82.5,53.,7.5,82.5,53.,       195P    205
0.,-0.75,0.,0.,0.,0.;                                                195P    206
126,2,2,0,0,0,0,-0.785398163397448,-0.785398163397448,               197P    207
-0.785398163397448,0.785398163397448,0.785398163397448,              197P    208
0.785398163397448,1.,0.707106781186545,1.,82.5,53.,0.,82.5,58.,      197P    209
0.,77.5,58.,0.,-0.785398163397448,0.785398163397448,0.,0.,0.;        197P    210
126,1,1,0,0,1,0,0.,0.,0.75,0.75,1.,1.,82.5,-53.,0.,82.5,-53.,        199P    211
7.5,0.,0.75,0.,0.,0.;                                                199P    212
126,1,1,0,0,1,0,0.5,0.5,11.1,11.1,1.,1.,82.5,53.,0.,82.5,-53.,       201P    213
0.,0.5,11.1,0.,0.,0.;                                                201P    214
126,1,1,0,0,1,0,-0.75,-0.75,0.,0.,1.,1.,77.5,-58.,7.5,77.5,-58.,     203P    215
0.,-0.75,0.,0.,0.,0.;                                                203P    216
126,2,2,0,0,0,0,-0.785398163397448,-0.785398163397448,               205P    217
-0.785398163397448,0.785398163397448,0.785398163397448,              205P    218
0.785398163397448,1.,0.707106781186545,1.,77.5,-58.,0.,82.5,         205P    219
-58.,0.,82.5,-53.,0.,-0.785398163397448,0.785398163397448,0.,0.,     205P    220
0.;                                                                  205P    221
126,1,1,0,0,1,0,0.,0.,0.75,0.75,1.,1.,-77.5,-58.,0.,-77.5,-58.,      207P    222
7.5,0.,0.75,0.,0.,0.;                                                207P    223
126,1,1,0,0,1,0,0.5,0.5,16.,16.,1.,1.,77.5,-58.,0.,-77.5,-58.,       209P    224
0.,0.5,16.,0.,0.,0.;                                                 209P    225
126,1,1,0,0,1,0,-0.75,-0.75,0.,0.,1.,1.,-82.5,-53.,7.5,-82.5,        211P    226
-53.,0.,-0.75,0.,0.,0.,0.;                                           211P    227
126,2,2,0,0,0,0,-0.785398163397448,-0.785398163397448,               213P    228
-0.785398163397448,0.785398163397448,0.785398163397448,              213P    229
0.785398163397448,1.,0.707106781186545,1.,-82.5,-53.,0.,-82.5,       213P    230
-58.,0.,-77.5,-58.,0.,-0.785398163397448,0.785398163397448,0.,       213P    231
0.,0.;                                                               213P    232
126,1,1,0,0,1,0,-4.83870967741935,-4.83870967741935,0.,0.,1.,1.,     215P    233
73.45,-50.5,7.5,73.45,-50.5,0.,-4.83870967741935,0.,0.,0.,0.;        215P    234
126,8,2,0,1,0,0,-3.14159265358979,-3.14159265358979,                 217P    235
-3.14159265358979,-1.5707963267949,-1.5707963267949,0.,0.,           217P    236
1.5707963267949,1.5707963267949,3.14159265358979,                    217P    237
3.14159265358979,3.14159265358979,1.,0.707106781186546,1.,           217P    238
0.707106781186546,1.,0.707106781186546,1.,0.707106781186546,1.,      217P    239
73.45,-50.5,0.,73.45,-48.95,0.,75.,-48.95,0.,76.55,-48.95,0.,        217P    240
76.55,-50.5,0.,76.55,-52.05,0.,75.,-52.05,0.,73.45,-52.05,0.,        217P    241
73.45,-50.5,0.,-3.14159265358979,3.14159265358979,0.,0.,0.;          217P    242
126,1,1,0,0,1,0,-4.83870967741935,-4.83870967741935,0.,0.,1.,1.,     219P    243
-76.55,50.5,7.5,-76.55,50.5,0.,-4.83870967741935,0.,0.,0.,0.;        219P    244
126,8,2,0,1,0,0,-3.14159265358979,-3.14159265358979,                 221P    245
-3.14159265358979,-1.5707963267949,-1.5707963267949,0.,0.,           221P    246
1.5707963267949,1.5707963267949,3.14159265358979,                    221P    247
3.14159265358979,3.14159265358979,1.,0.707106781186546,1.,           221P    248
0.707106781186546,1.,0.707106781186546,1.,0.707106781186546,1.,      221P    249
-76.55,50.5,0.,-76.55,52.05,0.,-75.,52.05,0.,-73.45,52.05,0.,        221P    250
-73.45,50.5,0.,-73.45,48.95,0.,-75.,48.95,0.,-76.55,48.95,0.,        221P    251
-76.55,50.5,0.,-3.14159265358979,3.14159265358979,0.,0.,0.;          221P    252
126,1,1,0,0,1,0,-4.83870967741935,-4.83870967741935,0.,0.,1.,1.,     223P    253
-76.55,-50.5,7.5,-76.55,-50.5,0.,-4.83870967741935,0.,0.,0.,0.;      223P    254
126,8,2,0,1,0,0,-3.14159265358979,-3.14159265358979,                 225P    255
-3.14159265358979,-1.5707963267949,-1.5707963267949,0.,0.,           225P    256
1.5707963267949,1.5707963267949,3.14159265358979,                    225P    257
3.14159265358979,3.14159265358979,1.,0.707106781186546,1.,           225P    258
0.707106781186546,1.,0.707106781186546,1.,0.707106781186546,1.,      225P    259
-76.55,-50.5,0.,-76.55,-48.95,0.,-75.,-48.95,0.,-73.45,-48.95,       225P    260
0.,-73.45,-50.5,0.,-73.45,-52.05,0.,-75.,-52.05,0.,-76.55,           225P    261
-52.05,0.,-76.55,-50.5,0.,-3.14159265358979,3.14159265358979,0.,     225P    262
0.,0.;                                                               225P    263
126,1,1,0,0,1,0,-4.83870967741935,-4.83870967741935,0.,0.,1.,1.,     227P    264
73.45,50.5,7.5,73.45,50.5,0.,-4.83870967741935,0.,0.,0.,0.;          227P    265
126,8,2,0,1,0,0,-3.14159265358979,-3.14159265358979,                 229P    266
-3.14159265358979,-1.5707963267949,-1.5707963267949,0.,0.,           229P    267
1.5707963267949,1.5707963267949,3.14159265358979,                    229P    268
3.14159265358979,3.14159265358979,1.,0.707106781186546,1.,           229P    269
0.707106781186546,1.,0.707106781186546,1.,0.707106781186546,1.,      229P    270
73.45,50.5,0.,73.45,52.05,0.,75.,52.05,0.,76.55,52.05,0.,76.55,      229P    271
50.5,0.,76.55,48.95,0.,75.,48.95,0.,73.45,48.95,0.,73.45,50.5,       229P    272
0.,-3.14159265358979,3.14159265358979,0.,0.,0.;                      229P    273
126,1,1,0,0,1,0,0.5,0.5,11.1,11.1,1.,1.,-82.5,-53.,0.,-82.5,53.,     231P    274
0.,0.5,11.1,0.,0.,0.;                                                231P    275
128,1,2,1,2,0,0,0,0,0,0.,0.,0.75,0.75,-0.785398163397448,            233P    276
-0.785398163397448,-0.785398163397448,0.785398163397448,             233P    277
0.785398163397448,0.785398163397448,1.,1.,0.707106781186548,         233P    278
0.707106781186548,1.,1.,72.5,38.,0.,72.5,38.,7.5,72.5,48.,0.,        233P    279
72.5,48.,7.5,62.5,48.,0.,62.5,48.,7.5,0.,0.75,                       233P    280
-0.785398163397448,0.785398163397448;                                233P    281
128,1,1,1,1,0,0,1,0,0,0.999,0.999,8.601,8.601,-0.001,-0.001,         235P    282
0.751,0.751,1.,1.,1.,1.,72.5,38.01,-0.01,72.5,-38.01,-0.01,72.5,     235P    283
38.01,7.51,72.5,-38.01,7.51,0.999,8.601,-0.001,0.751;                235P    284
128,1,2,1,2,0,0,0,0,0,0.,0.,0.75,0.75,-0.785398163397448,            237P    285
-0.785398163397448,-0.785398163397448,0.785398163397448,             237P    286
0.785398163397448,0.785398163397448,1.,1.,0.707106781186548,         237P    287
0.707106781186548,1.,1.,62.5,-48.,0.,62.5,-48.,7.5,72.5,-48.,0.,     237P    288
72.5,-48.,7.5,72.5,-38.,0.,72.5,-38.,7.5,0.,0.75,                    237P    289
-0.785398163397448,0.785398163397448;                                237P    290
128,1,1,1,1,0,0,1,0,0,0.999,0.999,13.501,13.501,-0.001,-0.001,       239P    291
0.751,0.751,1.,1.,1.,1.,62.51,-48.,-0.01,-62.51,-48.,-0.01,          239P    292
62.51,-48.,7.51,-62.51,-48.,7.51,0.999,13.501,-0.001,0.751;          239P    293
128,1,2,1,2,0,0,0,0,0,0.,0.,0.75,0.75,-0.785398163397448,            241P    294
-0.785398163397448,-0.785398163397448,0.785398163397448,             241P    295
0.785398163397448,0.785398163397448,1.,1.,0.707106781186548,         241P    296
0.707106781186548,1.,1.,-72.5,-38.,0.,-72.5,-38.,7.5,-72.5,-48.,     241P    297
0.,-72.5,-48.,7.5,-62.5,-48.,0.,-62.5,-48.,7.5,0.,0.75,              241P    298
-0.785398163397448,0.785398163397448;                                241P    299
128,1,1,1,1,0,0,1,0,0,0.999,0.999,8.601,8.601,-0.001,-0.001,         243P    300
0.751,0.751,1.,1.,1.,1.,-72.5,-38.01,-0.01,-72.5,38.01,-0.01,        243P    301
-72.5,-38.01,7.51,-72.5,38.01,7.51,0.999,8.601,-0.001,0.751;         243P    302
128,1,2,1,2,0,0,0,0,0,0.,0.,0.75,0.75,-0.785398163397448,            245P    303
-0.785398163397448,-0.785398163397448,0.785398163397448,             245P    304
0.785398163397448,0.785398163397448,1.,1.,0.707106781186548,         245P    305
0.707106781186548,1.,1.,-62.5,48.,0.,-62.5,48.,7.5,-72.5,48.,0.,     245P    306
-72.5,48.,7.5,-72.5,38.,0.,-72.5,38.,7.5,0.,0.75,                    245P    307
-0.785398163397448,0.785398163397448;                                245P    308
128,1,1,1,1,0,0,1,0,0,0.999,0.999,13.501,13.501,-0.001,-0.001,       247P    309
0.751,0.751,1.,1.,1.,1.,-62.51,48.,-0.01,62.51,48.,-0.01,-62.51,     247P    310
48.,7.51,62.51,48.,7.51,0.999,13.501,-0.001,0.751;                   247P    311
128,1,2,1,2,0,0,0,0,0,0.,0.,1.5,1.5,-0.785398163397448,              249P    312
-0.785398163397448,-0.785398163397448,0.785398163397448,             249P    313
0.785398163397448,0.785398163397448,1.,1.,0.707106781186548,         249P    314
0.707106781186548,1.,1.,-77.5,58.,7.5,-77.5,58.,0.,-82.5,58.,        249P    315
7.5,-82.5,58.,0.,-82.5,53.,7.5,-82.5,53.,0.,0.,1.5,                  249P    316
-0.785398163397448,0.785398163397448;                                249P    317
128,1,1,1,1,0,0,1,0,0,0.499,0.499,16.001,16.001,-0.001,-0.001,       251P    318
0.751,0.751,1.,1.,1.,1.,77.51,58.,-0.01,-77.51,58.,-0.01,77.51,      251P    319
58.,7.51,-77.51,58.,7.51,0.499,16.001,-0.001,0.751;                  251P    320
128,1,1,1,1,0,0,1,0,0,-8.251,-8.251,8.251,8.251,-5.801,-5.801,       253P    321
5.801,5.801,1.,1.,1.,1.,-82.51,-58.01,7.5,82.51,-58.01,7.5,          253P    322
-82.51,58.01,7.5,82.51,58.01,7.5,-8.251,8.251,-5.801,5.801;          253P    323
128,1,2,1,2,0,0,0,0,0,0.,0.,1.5,1.5,-0.785398163397448,              255P    324
-0.785398163397448,-0.785398163397448,0.785398163397448,             255P    325
0.785398163397448,0.785398163397448,1.,1.,0.707106781186548,         255P    326
0.707106781186548,1.,1.,82.5,53.,7.5,82.5,53.,0.,82.5,58.,7.5,       255P    327
82.5,58.,0.,77.5,58.,7.5,77.5,58.,0.,0.,1.5,-0.785398163397448,      255P    328
0.785398163397448;                                                   255P    329
128,1,1,1,1,0,0,1,0,0,0.499,0.499,11.101,11.101,-0.001,-0.001,       257P    330
0.751,0.751,1.,1.,1.,1.,82.5,-53.01,-0.01,82.5,53.01,-0.01,82.5,     257P    331
-53.01,7.51,82.5,53.01,7.51,0.499,11.101,-0.001,0.751;               257P    332
128,1,2,1,2,0,0,0,0,0,0.,0.,1.5,1.5,-0.785398163397448,              259P    333
-0.785398163397448,-0.785398163397448,0.785398163397448,             259P    334
0.785398163397448,0.785398163397448,1.,1.,0.707106781186548,         259P    335
0.707106781186548,1.,1.,77.5,-58.,7.5,77.5,-58.,0.,82.5,-58.,        259P    336
7.5,82.5,-58.,0.,82.5,-53.,7.5,82.5,-53.,0.,0.,1.5,                  259P    337
-0.785398163397448,0.785398163397448;                                259P    338
128,1,1,1,1,0,0,1,0,0,0.499,0.499,16.001,16.001,-0.001,-0.001,       261P    339
0.751,0.751,1.,1.,1.,1.,-77.51,-58.,-0.01,77.51,-58.,-0.01,          261P    340
-77.51,-58.,7.51,77.51,-58.,7.51,0.499,16.001,-0.001,0.751;          261P    341
128,1,2,1,2,0,0,0,0,0,0.,0.,1.5,1.5,-0.785398163397448,              263P    342
-0.785398163397448,-0.785398163397448,0.785398163397448,             263P    343
0.785398163397448,0.785398163397448,1.,1.,0.707106781186548,         263P    344
0.707106781186548,1.,1.,-82.5,-53.,7.5,-82.5,-53.,0.,-82.5,-58.,     263P    345
7.5,-82.5,-58.,0.,-77.5,-58.,7.5,-77.5,-58.,0.,0.,1.5,               263P    346
-0.785398163397448,0.785398163397448;                                263P    347
128,1,8,1,2,0,1,0,0,1,0.,0.,4.83870967741935,4.83870967741935,       265P    348
-3.14159265358979,-3.14159265358979,-3.14159265358979,               265P    349
-1.5707963267949,-1.5707963267949,0.,0.,1.5707963267949,             265P    350
1.5707963267949,3.14159265358979,3.14159265358979,                   265P    351
3.14159265358979,1.,1.,0.707106781186548,0.707106781186548,1.,       265P    352
1.,0.707106781186548,0.707106781186548,1.,1.,0.707106781186548,      265P    353
0.707106781186548,1.,1.,0.707106781186548,0.707106781186548,1.,      265P    354
1.,73.45,-50.5,0.,73.45,-50.5,7.5,73.45,-52.05,0.,73.45,-52.05,      265P    355
7.5,75.,-52.05,0.,75.,-52.05,7.5,76.55,-52.05,0.,76.55,-52.05,       265P    356
7.5,76.55,-50.5,0.,76.55,-50.5,7.5,76.55,-48.95,0.,76.55,-48.95,     265P    357
7.5,75.,-48.95,0.,75.,-48.95,7.5,73.45,-48.95,0.,73.45,-48.95,       265P    358
7.5,73.45,-50.5,0.,73.45,-50.5,7.5,0.,4.83870967741935,              265P    359
-3.14159265358979,3.14159265358979;                                  265P    360
128,1,8,1,2,0,1,0,0,1,0.,0.,4.83870967741935,4.83870967741935,       267P    361
-3.14159265358979,-3.14159265358979,-3.14159265358979,               267P    362
-1.5707963267949,-1.5707963267949,0.,0.,1.5707963267949,             267P    363
1.5707963267949,3.14159265358979,3.14159265358979,                   267P    364
3.14159265358979,1.,1.,0.707106781186548,0.707106781186548,1.,       267P    365
1.,0.707106781186548,0.707106781186548,1.,1.,0.707106781186548,      267P    366
0.707106781186548,1.,1.,0.707106781186548,0.707106781186548,1.,      267P    367
1.,-76.55,50.5,0.,-76.55,50.5,7.5,-76.55,48.95,0.,-76.55,48.95,      267P    368
7.5,-75.,48.95,0.,-75.,48.95,7.5,-73.45,48.95,0.,-73.45,48.95,       267P    369
7.5,-73.45,50.5,0.,-73.45,50.5,7.5,-73.45,52.05,0.,-73.45,52.05,     267P    370
7.5,-75.,52.05,0.,-75.,52.05,7.5,-76.55,52.05,0.,-76.55,52.05,       267P    371
7.5,-76.55,50.5,0.,-76.55,50.5,7.5,0.,4.83870967741935,              267P    372
-3.14159265358979,3.14159265358979;                                  267P    373
128,1,8,1,2,0,1,0,0,1,0.,0.,4.83870967741935,4.83870967741935,       269P    374
-3.14159265358979,-3.14159265358979,-3.14159265358979,               269P    375
-1.5707963267949,-1.5707963267949,0.,0.,1.5707963267949,             269P    376
1.5707963267949,3.14159265358979,3.14159265358979,                   269P    377
3.14159265358979,1.,1.,0.707106781186548,0.707106781186548,1.,       269P    378
1.,0.707106781186548,0.707106781186548,1.,1.,0.707106781186548,      269P    379
0.707106781186548,1.,1.,0.707106781186548,0.707106781186548,1.,      269P    380
1.,-76.55,-50.5,0.,-76.55,-50.5,7.5,-76.55,-52.05,0.,-76.55,         269P    381
-52.05,7.5,-75.,-52.05,0.,-75.,-52.05,7.5,-73.45,-52.05,0.,          269P    382
-73.45,-52.05,7.5,-73.45,-50.5,0.,-73.45,-50.5,7.5,-73.45,           269P    383
-48.95,0.,-73.45,-48.95,7.5,-75.,-48.95,0.,-75.,-48.95,7.5,          269P    384
-76.55,-48.95,0.,-76.55,-48.95,7.5,-76.55,-50.5,0.,-76.55,-50.5,     269P    385
7.5,0.,4.83870967741935,-3.14159265358979,3.14159265358979;          269P    386
128,1,8,1,2,0,1,0,0,1,0.,0.,4.83870967741935,4.83870967741935,       271P    387
-3.14159265358979,-3.14159265358979,-3.14159265358979,               271P    388
-1.5707963267949,-1.5707963267949,0.,0.,1.5707963267949,             271P    389
1.5707963267949,3.14159265358979,3.14159265358979,                   271P    390
3.14159265358979,1.,1.,0.707106781186548,0.707106781186548,1.,       271P    391
1.,0.707106781186548,0.707106781186548,1.,1.,0.707106781186548,      271P    392
0.707106781186548,1.,1.,0.707106781186548,0.707106781186548,1.,      271P    393
1.,73.45,50.5,0.,73.45,50.5,7.5,73.45,48.95,0.,73.45,48.95,7.5,      271P    394
75.,48.95,0.,75.,48.95,7.5,76.55,48.95,0.,76.55,48.95,7.5,76.55,     271P    395
50.5,0.,76.55,50.5,7.5,76.55,52.05,0.,76.55,52.05,7.5,75.,52.05,     271P    396
0.,75.,52.05,7.5,73.45,52.05,0.,73.45,52.05,7.5,73.45,50.5,0.,       271P    397
73.45,50.5,7.5,0.,4.83870967741935,-3.14159265358979,                271P    398
3.14159265358979;                                                    271P    399
128,1,1,1,1,0,0,1,0,0,0.499,0.499,11.101,11.101,-0.001,-0.001,       273P    400
0.751,0.751,1.,1.,1.,1.,-82.5,53.01,-0.01,-82.5,-53.01,-0.01,        273P    401
-82.5,53.01,7.51,-82.5,-53.01,7.51,0.499,11.101,-0.001,0.751;        273P    402
128,1,1,1,1,0,0,1,0,0,-8.251,-8.251,8.251,8.251,-5.801,-5.801,       275P    403
5.801,5.801,1.,1.,1.,1.,82.51,-58.01,0.,-82.51,-58.01,0.,82.51,      275P    404
58.01,0.,-82.51,58.01,0.,-8.251,8.251,-5.801,5.801;                  275P    405
502,40,62.5,48.,0.,72.5,38.,0.,72.5,38.,7.5,62.5,48.,7.5,72.5,       277P    406
-38.,0.,72.5,-38.,7.5,62.5,-48.,0.,62.5,-48.,7.5,-62.5,-48.,0.,      277P    407
-62.5,-48.,7.5,-72.5,-38.,0.,-72.5,-38.,7.5,-72.5,38.,0.,-72.5,      277P    408
38.,7.5,-62.5,48.,0.,-62.5,48.,7.5,-82.5,53.,7.5,-77.5,58.,7.5,      277P    409
-77.5,58.,0.,-82.5,53.,0.,77.5,58.,7.5,77.5,58.,0.,-82.5,-53.,       277P    410
7.5,-77.5,-58.,7.5,77.5,-58.,7.5,82.5,-53.,7.5,82.5,53.,7.5,         277P    411
73.45,50.5,7.5,-76.55,-50.5,7.5,-76.55,50.5,7.5,73.45,-50.5,7.5,     277P    412
82.5,53.,0.,82.5,-53.,0.,77.5,-58.,0.,-77.5,-58.,0.,-82.5,-53.,      277P    413
0.,73.45,-50.5,0.,-76.55,50.5,0.,-76.55,-50.5,0.,73.45,50.5,0.;      277P    414
504,60,113,277,1,277,2,115,277,2,277,3,117,277,3,277,4,119,277,      279P    415
4,277,1,121,277,2,277,5,123,277,6,277,5,125,277,3,277,6,127,277,     279P    416
5,277,7,129,277,7,277,8,131,277,8,277,6,133,277,7,277,9,135,277,     279P    417
10,277,9,137,277,8,277,10,139,277,9,277,11,141,277,11,277,12,        279P    418
143,277,12,277,10,145,277,11,277,13,147,277,14,277,13,149,277,       279P    419
12,277,14,151,277,13,277,15,153,277,15,277,16,155,277,16,277,14,     279P    420
157,277,16,277,4,159,277,15,277,1,161,277,17,277,18,163,277,18,      279P    421
277,19,165,277,19,277,20,167,277,20,277,17,169,277,21,277,18,        279P    422
171,277,22,277,21,173,277,19,277,22,175,277,17,277,23,177,277,       279P    423
24,277,23,179,277,24,277,25,181,277,26,277,25,183,277,26,277,27,     279P    424
185,277,21,277,27,187,277,28,277,28,189,277,29,277,29,191,277,       279P    425
30,277,30,193,277,31,277,31,195,277,27,277,32,197,277,32,277,22,     279P    426
199,277,33,277,26,201,277,32,277,33,203,277,25,277,34,205,277,       279P    427
34,277,33,207,277,35,277,24,209,277,34,277,35,211,277,23,277,36,     279P    428
213,277,36,277,35,215,277,31,277,37,217,277,37,277,37,219,277,       279P    429
30,277,38,221,277,38,277,38,223,277,29,277,39,225,277,39,277,39,     279P    430
227,277,28,277,40,229,277,40,277,40,231,277,36,277,20;               279P    431
406,1,5HBody1;                                                       281P    432
314,62.7450980392157,62.7450980392157,62.7450980392157,13HSteel      283P    433
- Satin;                                                             283P    434
S      1G      2D    284P    434                                        T      1
